<svg viewBox="40.241 211.8 492.833 144.097" xmlns="http://www.w3.org/2000/svg" class="hl-logo" style="fill: #3b82f6">
            <g>
              <linearGradient id="SVGID_1_" gradientUnits="userSpaceOnUse" x1="102.4713" y1="354.63" x2="102.4713" y2="211.0327" gradientTransform="matrix(1 0 0 -1 0 566.93)">
                <stop offset="0" style="stop-color: #afd24b;"></stop>
                <stop offset="1" style="stop-color: #23dcc8;"></stop>
              </linearGradient>
              <linearGradient id="SVGID_2_" gradientUnits="userSpaceOnUse" x1="116.3512" y1="268.864" x2="116.3512" y2="254.3129" gradientTransform="matrix(1 0 0 -1 0 566.93)">
                <stop offset="0" style="stop-color: #afd24b;"></stop>
                <stop offset="1" style="stop-color: #23dcc8;"></stop>
              </linearGradient>
              <linearGradient id="SVGID_3_" gradientUnits="userSpaceOnUse" x1="115.4992" y1="258.8214" x2="169.3018" y2="258.8214" gradientTransform="matrix(1 0 0 -1 0 566.93)">
                <stop offset="0" style="stop-color: #fac80a;"></stop>
                <stop offset="1" style="stop-color: #f0871e;"></stop>
              </linearGradient>
              <linearGradient id="SVGID_4_" gradientUnits="userSpaceOnUse" x1="122.3986" y1="290.43" x2="146.1054" y2="290.43" gradientTransform="matrix(1 0 0 -1 0 566.93)">
                <stop offset="0" style="stop-color: #fac80a;"></stop>
                <stop offset="1" style="stop-color: #f0871e;"></stop>
              </linearGradient>
              <linearGradient id="SVGID_5_" gradientUnits="userSpaceOnUse" x1="113.5176" y1="294.8363" x2="182.541" y2="294.8363" gradientTransform="matrix(1.0188 5.695322e-03 5.702065e-03 -1.02 -3.686 570.8577)">
                <stop offset="0" style="stop-color: #fac80a;"></stop>
                <stop offset="1" style="stop-color: #f0871e;"></stop>
              </linearGradient>
              <path class="st0" d="M105.2,340.7c1.7,1.1,2.1,0.1,2.2-1.3c0.7-5.9,1.4-11.9,2-17.8c0.7-5.9,6.2-8.7,11.1-5.5c1.5,1,2.4,2.4,2.5,4.3 c0.4,5.8,0.9,11.5,1.3,17.3c0.2,2.1,0.4,2.3,1.9,1.5c0.5,0,1,0.1,1.5-0.1c4.9-1.5,9.5-3.6,13.9-6.3c4-1.9,7.3-4.8,10.4-7.9 c1.4-1.4,2.3-1.4,3.8-0.1c2.6,2.2,5.3,4.3,8.1,6.4c1,0.8,1.1,1.4,0.1,2.4c-7.9,8.1-17.1,14.1-27.7,18c-2.2,0.8-4.5,1.5-6.7,2.1 c-9.3,2.2-18.7,2.9-28.1,1.4c-15.8-2.5-29.4-9.5-40.7-21c-8.7-8.8-14.5-19.2-17.9-31c-2.4-8.4-3.2-17.1-2.3-25.7 c2.1-19.5,10.6-35.9,25.6-48.6c6.4-5.4,13.6-9.6,21.6-12.3c7.2-2.5,14.6-4.2,22.2-4.2c1.5,0,2,0.3,1.9,1.9 c-0.2,3.6-0.3,7.1-0.3,10.7c0,1.3-0.5,1.7-1.8,1.8c-12,0.3-22.8,4.2-32.4,11.4c-7.8,5.9-13.9,13.1-17.8,22.1 c-0.6,0.3-0.2,0.7-0.1,1.1c-1.7,1.5-2,3.8-2.6,5.8c-3.1,10.6-3.6,21.3-0.6,32.1c1,3.7,2.1,7.3,3.9,10.6c3.5,6.6,8,12.5,13.6,17.5 c1.9,1.7,3.8,3.5,6.3,4.4c0.2,0.4,0.6,0.6,1,0.9c3.1,2.3,6.6,3.9,10.2,5.1C95.7,339.1,100.3,340.5,105.2,340.7z"></path>
              <path class="st1" d="M123.6,305.5c-0.1,3.8-3.5,7.2-7.3,7.1c-4,0-7.2-3.4-7.2-7.4c0-3.7,3-7.2,7.4-7.2 C120.6,298,123.7,301.5,123.6,305.5z"></path>
              <path class="st2" d="M105.2,340.8c-4.9-0.1-9.5-1.5-14-3.2c-3.6-1.3-7.1-2.9-10.2-5.1c-0.4-0.3-0.7-0.5-1-0.9 c1.9-2.7,3.8-5.3,5.1-8.4c2.8-6.7,2.7-13.4,0.4-20.2c-3.1-9.3-8.5-17.5-14.1-25.4c-3.9-5.5-8-11-12-16.4c-0.1-0.4-0.5-0.8,0.1-1.1 c3.3,1.4,5.9,3.7,8.7,5.7c6.9,5,14,9.7,22.3,12c4,1.1,8.3,0.8,12.4-0.7c1.8-0.7,3.6-1.3,5.3-2c3.4-1.3,5-0.5,5.4,3.1 c0.7,5.7,0.5,11.4,0.7,17.2c0,1.1-0.6,1.2-1.4,1.4c-3.4,1.1-5.3,3.6-6,7c-0.6,3.3,0.5,6.1,3.2,8.2c0.9,0.7,1.9,1,2.9,1.4 c0,0.5-0.5,0.5-0.8,0.6c-2.5,1-3.9,2.8-4.3,5.4C107,326.5,105.8,333.6,105.2,340.8z"></path>
              <path class="st2" d="M81.8,261.9c0-7.4,5.9-13.2,13.4-13.1c7.3,0.1,13.2,6.1,13,13.4c-0.2,7.5-6.3,12.9-13.4,12.9 C87.6,275.1,81.8,269.1,81.8,261.9z"></path>
              <path class="st3" d="M141.8,332.7c-4.4,2.7-9,4.8-13.9,6.3c-0.5,0.1-1,0.1-1.5,0.1c-0.4-6-0.9-12.1-1.3-18.1c-0.2-2.7-1.5-5-3.8-6.3 c-1.9-1.1-1-1.4,0.1-2.1c3.1-2.2,4.7-6.3,4-9.5c-1-4-4.4-6.7-8.6-6.7c-0.9,0-1.2-0.2-1.2-1.1c0.1-2.6,0.1-5.2,0.3-7.8 c0.1-2.2,0.7-2.5,2.7-1.4c2.2,1.2,4.3,2.5,6.6,3.3c6,2.2,12,2.2,18,0.2c8.2-2.7,15.4-7.4,23-11.2c5.9-3.4,1.9,1,1.6,1.3 c-6.5,6.3-13.5,12.2-19.7,18.8c-3.7,4-7.5,8-9.2,13.4c-2.2,7-1.3,13.6,2.3,19.8C141.4,332.1,141.6,332.4,141.8,332.7z"></path>
              <path class="st4" d="M134.2,288.3c-6.5,0-11.9-5.4-11.8-11.9c0.1-6.4,5.5-11.7,12.1-11.7c6.4,0.1,11.8,5.5,11.6,11.9 C145.8,283,141.3,288.3,134.2,288.3z"></path>
              <path class="st13" d="M114,212.9l-0.1,12.6c0,0.6,0.5,1.1,1,1.1c30.6,1.7,54.4,27.1,54.2,57.8c-0.1,13.3-4.7,26.1-13.2,36.3 c-0.4,0.5-0.3,1.2,0.2,1.6l10,7.5c0.5,0.4,1.1,0.3,1.5-0.2c10.4-12.8,16.1-28.7,16.2-45.2c0.2-38.7-30.1-70.8-68.8-72.6 C114.5,211.8,114,212.3,114,212.9z"></path>
            </g>
            <g class="gt-sm">
              <path class="st5" d="M234.5,310.7H229v-21.2h-24.3v21.2h-5.5v-46.5h5.5v20.4H229v-20.4h5.5V310.7z"></path>
              <path class="st6" d="M271.1,295.4h-23.7c0.1,3.7,1.1,6.6,3,8.6s4.6,3,7.9,3c3.8,0,7.3-1.2,10.4-3.7v5c-2.9,2.1-6.8,3.2-11.7,3.2 c-4.7,0-8.5-1.5-11.2-4.5s-4.1-7.3-4.1-12.7c0-5.2,1.5-9.4,4.4-12.6c3-3.3,6.6-4.9,11-4.9c4.4,0,7.8,1.4,10.2,4.2 c2.4,2.8,3.6,6.7,3.6,11.7v2.7H271.1z M265.6,290.9c0-3.1-0.8-5.5-2.2-7.2c-1.5-1.7-3.5-2.6-6.1-2.6c-2.5,0-4.7,0.9-6.5,2.7 c-1.8,1.8-2.9,4.1-3.3,7h18.1V290.9z"></path>
              <path class="st7" d="M303.2,310.7h-5.4v-5.2h-0.1c-2.3,4-5.8,6-10.3,6c-3.3,0-6-0.9-7.8-2.6c-1.9-1.8-2.8-4.1-2.8-7 c0-6.2,3.7-9.8,11.1-10.8l10.1-1.4c0-5.6-2.3-8.5-6.9-8.5c-4,0-7.7,1.4-10.9,4.1v-5.5c3.3-2.1,7.1-3.1,11.4-3.1 c7.9,0,11.8,4.1,11.8,12.4v21.6H303.2z M297.8,293.9l-8.1,1.1c-2.5,0.3-4.4,1-5.6,1.8c-1.3,0.9-1.9,2.4-1.9,4.7 c0,1.6,0.6,2.9,1.8,4c1.2,1,2.7,1.5,4.7,1.5c2.7,0,4.9-0.9,6.6-2.8c1.7-1.8,2.6-4.2,2.6-7v-3.3H297.8z"></path>
              <path class="st8" d="M317.7,310.7h-5.4v-49.2h5.4V310.7z"></path>
              <path class="st9" d="M344.2,310.4c-1.3,0.7-2.9,1-5,1c-5.9,0-8.8-3.2-8.8-9.7V282h-5.8v-4.5h5.8v-8.1l5.4-1.7v9.8h8.5v4.5h-8.5 v18.7c0,2.2,0.4,3.8,1.1,4.8c0.8,1,2,1.4,3.8,1.4c1.4,0,2.5-0.4,3.5-1.1V310.4z"></path>
              <path class="st10" d="M378.5,311.7h-5.4v-19.1c0-6.9-2.6-10.4-7.8-10.4c-2.6,0-4.8,1-6.6,3c-1.8,2-2.7,4.6-2.7,7.7v18.8h-5.4v-49.2 h5.4V284h0.1c2.6-4.2,6.2-6.3,11-6.3c7.6,0,11.3,4.5,11.3,13.5v20.5H378.5z"></path>
              <path class="st11" d="M416,277.5L400.6,316c-2.8,6.9-6.6,10.3-11.6,10.3c-1.4,0-2.6-0.1-3.5-0.4v-4.8c1.2,0.4,2.2,0.6,3.2,0.6 c2.7,0,4.7-1.6,6.1-4.8l2.7-6.3l-13.1-33.2h6l9.1,25.6c0.1,0.3,0.3,1.2,0.7,2.5h0.2c0.1-0.5,0.3-1.3,0.7-2.5l9.5-25.6L416,277.5 L416,277.5z"></path>
            </g>
            <g class="gt-sm">
              <path class="st12" d="M436,307.5c-2.2,2.3-4.2,4.8-6.6,6.7c-2.4,2-5.3,3.6-8,5.3c-0.4,0.3-1.1,0.5-1.5,0.4 c-0.7-0.2-1.8-0.8-1.8-1.1c0-0.7,0.5-1.7,1.2-2c3.3-1.6,6.4-3.6,8.8-6.1c1.9-2,3.6-4.2,5.4-6.3c0.2-0.3,0.3-0.8,0.2-1.2 c-2.7-7-3.5-14.3-3.2-21.6c0.4-9.1,2.6-17.8,6.4-26.2c1.3-2.9,3-5.7,5.7-7.8c3.1-2.4,6.4-1.8,8.2,1.7c1.2,2.3,1.5,4.8,1.5,7.3 c0.1,6.8-1.2,13.5-2.9,20.2c-2.2,8.5-5.2,16.7-9.5,24.5c-0.2,0.4-0.4,0.8-0.7,1.2c-1.3,2-1.2,2.2,0.6,4.2c1.7,1.9,3.3,2.6,5.2,2 c2.2-0.7,3.8-2.2,5.2-3.8c3.5-4.1,5.9-8.8,8.1-13.6c0.2-0.4,0.4-0.8,0.6-1.2c0.5-0.8,1.2-1.4,2.3-1.1c1,0.3,1.5,1.1,1.3,2.1 c-0.4,2.3-1,4.6-1.2,6.9c-0.3,2.8-0.5,5.6-0.4,8.4c0.1,2.2,1.7,2.9,4,2.1c3-1.1,5.1-3.3,7.2-5.4c0.9-0.9,1.3-1.9,1.2-3.1 c-0.3-2.2-0.5-4.3-0.8-6.5c-0.1-1.1,0.4-2,1.4-2.3c1.1-0.2,2.1,0.4,2.3,1.6c0.2,1.1,0.4,2.3,0.5,2.9c1.3-1,2.9-2.3,4.5-3.5 c2.2-1.6,4.5-3,7.6-2.5c2.8,0.5,4.6,2.5,5.3,5.4c0.6,2.8-0.1,5.5-0.4,8.2c-0.1,0.9-0.2,1.9-0.2,2.8c0,1.9,0.7,2.7,2.8,2.5 c1.8-0.2,3.6-0.8,5.3-1.3c0.9-0.3,1.7-0.8,2.5-1.2c-0.5-1.8-1-3.4-1.3-5c-0.5-2.7-0.1-5.4,1.4-7.9c2-3.2,6-4.7,9.2-3.5 c3.7,1.3,5.5,5.1,4,8.6c-1.2,2.9-3.5,5.1-6,7.2c-0.6,0.5-1.2,0.9-1.9,1.5c2.2,1.7,4.6,2,7.2,1.5c5.6-1.1,9.5-4.3,12.2-8.8 c0.3-0.4,0.4-0.9,0.8-1.3c0.6-0.7,1.5-0.9,2.4-0.4s1.2,1.2,0.8,2.1c-3,6.3-10.5,12.1-18.4,12c-2.8,0-5.3-0.9-7.4-2.6 c-0.6-0.5-1-0.5-1.7-0.2c-2,0.8-4,1.8-6.1,2.3c-6.1,1.5-10.7-1-9.6-8c0.3-2.2,0.6-4.4,0.7-6.6c0.1-1.5-0.1-3-1.7-3.8 s-2.9,0.2-4.1,0.9c-3.4,2.2-5.7,5.3-7.6,8.6c-0.8,1.5-0.5,3.4-0.8,5.1c-0.2,1-0.4,2-0.8,2.9c-0.4,1.2-1.4,1.6-2.4,1.3 c-1-0.3-1.5-1.2-1.1-2.4c0.2-0.5,0.3-1.1,0.6-1.9c-1.1,0.8-1.9,1.6-2.9,2.1c-1.8,0.8-3.6,1.8-5.5,2.2c-3.4,0.7-6.5-1.9-7-5.5 c-0.2-1.5-0.2-3-0.3-4.6c-0.3,0.4-0.5,0.7-0.8,1.1c-1.8,2.6-3.7,5.1-6.4,7c-4.5,3.2-9.1,2.6-12.6-1.5 C436.6,308.3,436.3,307.9,436,307.5z M436.3,299.4c0.1,0,0.3,0.1,0.4,0.1c1-2.1,2.1-4.1,3.1-6.2c4.6-10.4,7.6-21.3,8.7-32.5 c0.3-3.2,0.4-6.4-0.7-9.5c-0.7-2-1.6-2.2-3.3-0.8c-0.2,0.2-0.4,0.3-0.5,0.6c-1.3,2-2.8,3.9-3.7,6c-3.7,8-5.7,16.5-6,25.2 C434,288,434.6,293.8,436.3,299.4z M507.6,304c2.7-2,5.2-3.9,6.4-6.8c0.7-1.7,0.1-3.3-1.3-4c-1.4-0.7-3.4-0.3-4.5,1.1 c-0.5,0.7-1,1.5-1.2,2.3C506.2,299,506.6,301.4,507.6,304z"></path>
    <path class="st12" d="M462.7,281.1c1.8,0,3.3,1.4,3.3,3c0,1.7-1.6,3.1-3.4,3c-1.8,0-3.3-1.4-3.3-3 C459.3,282.5,460.9,281.1,462.7,281.1z"></path>
  </g>
</svg>