<?xml version="1.0" encoding="UTF-8" standalone="no"?>
<!-- Created with Inkscape (http://www.inkscape.org/) -->

<svg
   width="210mm"
   height="297mm"
   viewBox="0 0 210 297"
   version="1.1"
   id="svg1"
   inkscape:version="1.3.2 (091e20e, 2023-11-25)"
   sodipodi:docname="river-follow-1.svg"
   xmlns:inkscape="http://www.inkscape.org/namespaces/inkscape"
   xmlns:sodipodi="http://sodipodi.sourceforge.net/DTD/sodipodi-0.dtd"
   xmlns="http://www.w3.org/2000/svg"
   xmlns:svg="http://www.w3.org/2000/svg">
  <sodipodi:namedview
     id="namedview1"
     pagecolor="#ffffff"
     bordercolor="#000000"
     borderopacity="0"
     inkscape:showpageshadow="2"
     inkscape:pageopacity="0.0"
     inkscape:pagecheckerboard="true"
     inkscape:deskcolor="#d1d1d1"
     inkscape:document-units="mm"
     showguides="false"
     inkscape:zoom="0.69222524"
     inkscape:cx="535.23041"
     inkscape:cy="538.84195"
     inkscape:window-width="1392"
     inkscape:window-height="1027"
     inkscape:window-x="264"
     inkscape:window-y="25"
     inkscape:window-maximized="0"
     inkscape:current-layer="layer1" />
  <defs
     id="defs1">
    <inkscape:path-effect
       effect="spiro"
       id="path-effect8"
       is_visible="true"
       lpeversion="1" />
  </defs>
  <g
     inkscape:label="Layer 1"
     inkscape:groupmode="layer"
     id="layer1">
    <path
       style="fill:none;fill-opacity:1;fill-rule:evenodd;stroke-width:0.264583"
       d="m -0.38222144,272.90612 c 0,0 75.67984544,-16.05331 89.82203944,-70.71098 14.142192,-54.65766 4.586658,-65.74208 4.586658,-65.74208 0,0 15.671074,27.90216 36.311034,-30.95994"
       id="path7" />
    <path
       style="fill:#00c6a1;fill-opacity:1;fill-rule:evenodd;stroke-width:0.264583"
       d="m 66.506532,157.85746 c 3.35484,-10.10366 9.668871,-18.96126 16.560965,-27.07532 6.892094,-8.11406 14.455726,-15.66579 20.896743,-24.14236 21.1844,-27.879305 29.01461,-64.035686 49.7154,-92.275939 10.3504,-14.12012708 24.30394,-26.243733 41.1023,-31.175643 8.39918,-2.465954 17.39756,-3.063653 25.96601,-1.272321 8.56844,1.791332 16.67861,6.022864 22.72711,12.3508009 6.28969,6.58026403 10.2006,15.2630855 11.59986,24.2576461 1.39926,8.99456 0.36023,18.281324 -2.37138,26.964547 -5.46321,17.366447 -17.35427,31.95309 -30.09119,44.961207 -12.73692,13.008122 -26.64899,24.994172 -37.62931,39.515632 -5.49015,7.26073 -10.22364,15.15016 -13.42713,23.67058 -3.2035,8.52043 -4.8481,17.69684 -4.14292,26.77223 1.07202,13.79647 7.47675,26.67908 15.44397,37.99346 7.96722,11.31439 17.54637,21.39123 26.08689,32.27937 8.54051,10.88814 16.16873,22.88632 19.35634,36.35224 1.59381,6.73296 2.0382,13.77616 0.89803,20.6006 -1.14018,6.82444 -3.89883,13.42299 -8.27423,18.78292 -6.38206,7.81813 -15.97577,12.66702 -25.93185,14.31937 -9.95608,1.65234 -20.25015,0.28047 -29.86187,-2.79666 -19.22344,-6.15425 -35.58443,-18.7608 -53.13939,-28.72267 -13.255327,-7.52196 -27.415283,-13.65544 -39.43382,-23.02766 -6.009269,-4.68611 -11.452432,-10.18696 -15.515767,-16.63369 -4.063335,-6.44672 -6.708939,-13.87815 -6.970284,-21.49409 -0.240061,-6.9957 1.509238,-13.90796 3.670886,-20.56564 2.161648,-6.65769 4.753886,-13.19523 6.29056,-20.02429 3.670207,-16.3106 1.205687,-33.74768 6.474077,-49.61432 z"
       id="path8"
       inkscape:path-effect="#path-effect8"
       inkscape:original-d="M 66.506532,157.85746 C 60.390988,134.03232 60.900616,133.39529 103.96424,106.63978 136.30262,86.547884 225.00102,17.964408 243.47506,-5.7333221 258.01034,-24.378589 169.70632,144.22489 167.41299,180.40852 c -2.29333,36.18363 44.97472,120.65457 53.511,146.00859 8.53628,25.35402 -123.929957,-7.29983 -108.93311,-17.19996 14.99685,-9.90013 -25.863648,-53.2562 -61.919871,-61.15544 -19.727131,-4.32184 4.030531,-25.40149 9.961446,-40.58993 4.909304,-12.5722 9.070575,-40.72852 6.474077,-49.61432 z"
       transform="translate(68.417639,-31.342159)"
       sodipodi:nodetypes="csssszssc" />
  </g>
</svg>
