<?xml version="1.0" encoding="UTF-8" standalone="no"?>
<!-- Created with Inkscape (http://www.inkscape.org/) -->

<svg
   width="210mm"
   height="297mm"
   viewBox="0 0 210 297"
   version="1.1"
   id="svg1"
   inkscape:version="1.3.2 (091e20e, 2023-11-25)"
   sodipodi:docname="3.svg"
   xmlns:inkscape="http://www.inkscape.org/namespaces/inkscape"
   xmlns:sodipodi="http://sodipodi.sourceforge.net/DTD/sodipodi-0.dtd"
   xmlns="http://www.w3.org/2000/svg"
   xmlns:svg="http://www.w3.org/2000/svg">
  <sodipodi:namedview
     id="namedview1"
     pagecolor="#ffffff"
     bordercolor="#000000"
     borderopacity="0"
     inkscape:showpageshadow="2"
     inkscape:pageopacity="0.0"
     inkscape:pagecheckerboard="true"
     inkscape:deskcolor="#d1d1d1"
     inkscape:document-units="mm"
     showguides="false"
     inkscape:zoom="0.69222524"
     inkscape:cx="535.23041"
     inkscape:cy="550.39888"
     inkscape:window-width="1392"
     inkscape:window-height="1027"
     inkscape:window-x="264"
     inkscape:window-y="25"
     inkscape:window-maximized="0"
     inkscape:current-layer="layer1" />
  <defs
     id="defs1">
    <inkscape:path-effect
       effect="spiro"
       id="path-effect8"
       is_visible="true"
       lpeversion="1" />
  </defs>
  <g
     inkscape:label="Layer 1"
     inkscape:groupmode="layer"
     id="layer1">
    <path
       style="fill:none;fill-opacity:1;fill-rule:evenodd;stroke-width:0.264583"
       d="m -0.38222144,272.90612 c 0,0 75.67984544,-16.05331 89.82203944,-70.71098 14.142192,-54.65766 4.586658,-65.74208 4.586658,-65.74208 0,0 15.671074,27.90216 36.311034,-30.95994"
       id="path7" />
    <path
       style="fill:#00c6a1;fill-rule:evenodd;stroke-width:0.264583"
       d="M -22.551065,285.13719 C -8.7043529,286.98366 -5.7333224,316.09714 60.77321,254.9417 86.708093,231.09353 19.875515,212.51512 39.368808,165.11966 58.862101,117.7242 81.413166,140.6575 92.115366,110.84422 102.81757,81.030948 89.496268,56.024732 82.559838,47.777681 73.690527,37.232538 49.222157,19.248004 29.686658,13.009816 20.554631,10.093724 -16.820497,-6.0584397 -16.820497,-6.0584397 l -8.023897,35.1072707 c 0,0 -81.849526,244.867879 2.293329,256.088359 z"
       id="path1"
       sodipodi:nodetypes="ssssssccs" />
  </g>
</svg>
