<?xml version="1.0" encoding="UTF-8" standalone="no"?>
<!-- Created with Inkscape (http://www.inkscape.org/) -->

<svg
   width="760mm"
   height="350mm"
   viewBox="0 0 760 350"
   version="1.1"
   id="svg1"
   inkscape:version="1.3.2 (091e20e, 2023-11-25)"
   sodipodi:docname="river-end.svg"
   xmlns:inkscape="http://www.inkscape.org/namespaces/inkscape"
   xmlns:sodipodi="http://sodipodi.sourceforge.net/DTD/sodipodi-0.dtd"
   xmlns="http://www.w3.org/2000/svg"
   xmlns:svg="http://www.w3.org/2000/svg">
  <sodipodi:namedview
     id="namedview1"
     pagecolor="#ffffff"
     bordercolor="#000000"
     borderopacity="0"
     inkscape:showpageshadow="2"
     inkscape:pageopacity="0.0"
     inkscape:pagecheckerboard="true"
     inkscape:deskcolor="#d1d1d1"
     inkscape:document-units="mm"
     showguides="false"
     inkscape:zoom="0.34611262"
     inkscape:cx="949.11304"
     inkscape:cy="759.86828"
     inkscape:window-width="1392"
     inkscape:window-height="1027"
     inkscape:window-x="264"
     inkscape:window-y="25"
     inkscape:window-maximized="0"
     inkscape:current-layer="layer1" />
  <defs
     id="defs1">
    <inkscape:path-effect
       effect="spiro"
       id="path-effect8"
       is_visible="true"
       lpeversion="1" />
  </defs>
  <g
     inkscape:label="Layer 1"
     inkscape:groupmode="layer"
     id="layer1">
    <path
       style="fill:none;fill-opacity:1;fill-rule:evenodd;stroke-width:0.264583"
       d="m -0.38222144,272.90612 c 0,0 75.67984544,-16.05331 89.82203944,-70.71098 14.142192,-54.65766 4.586658,-65.74208 4.586658,-65.74208 0,0 15.671074,27.90216 36.311034,-30.95994"
       id="path7" />
    <path
       style="fill:#00c6a1;fill-rule:evenodd;stroke-width:0.292827"
       d="M 649.86564,421.63975 C 843.58883,495.97712 839.58864,-66.807024 806.20303,-45.086615 771.82355,-22.719597 775.72835,31.934856 680.83998,52.49108 619.58268,65.761607 543.17874,82.739796 511.37954,114.49211 408.97507,216.74557 423.2251,285.41107 218.35792,271.10422 141.07934,265.70749 68.014768,325.96249 -53.004163,257.31662 -127.53913,215.03797 -105.8186,511.4355 213.4107,428.19007 c 72.50319,-18.90665 385.29316,-12.71111 436.45494,-6.55032 z"
       id="path1"
       sodipodi:nodetypes="ssssssss" />
  </g>
</svg>
